<svg width="64" height="32" viewBox="0 0 64 32" fill="none" xmlns="http://www.w3.org/2000/svg">
<path d="M2 16C2 8.8203 7.8203 3 15 3H51C58.1797 3 64 8.8203 64 16C64 23.1797 58.1797 29 51 29H15C7.8203 29 2 23.1797 2 16Z" fill="#DFDFE6"/>
<g filter="url(#filter0_d_155_1054)">
<circle cx="15.5" cy="16" r="11.5" fill="#FCFCFD"/>
</g>
<path d="M38.207 13.7637L35.7754 21H34.0703L37.2578 12.4688H38.3477L38.207 13.7637ZM40.2402 21L37.7969 13.7637L37.6504 12.4688H38.7461L41.9512 21H40.2402ZM40.1289 17.8301V19.1016H35.5527V17.8301H40.1289ZM44.4932 12.4688H45.8877L48.2198 18.8906L50.5459 12.4688H51.9463L48.7764 21H47.6573L44.4932 12.4688ZM43.7901 12.4688H45.1553L45.4014 18.3691V21H43.7901V12.4688ZM51.2784 12.4688H52.6495V21H51.0381V18.3691L51.2784 12.4688Z" fill="black" fill-opacity="0.55"/>
<path d="M8.7 15.3C8.56155 15.3 8.42622 15.3411 8.3111 15.418C8.19599 15.4949 8.10627 15.6042 8.05328 15.7321C8.0003 15.86 7.98644 16.0008 8.01345 16.1366C8.04046 16.2724 8.10713 16.3971 8.20503 16.495C8.30292 16.5929 8.42765 16.6595 8.56344 16.6866C8.69922 16.7136 8.83997 16.6997 8.96788 16.6467C9.09579 16.5937 9.20511 16.504 9.28203 16.3889C9.35895 16.2738 9.4 16.1384 9.4 16C9.4 15.8143 9.32625 15.6363 9.19498 15.505C9.0637 15.3738 8.88565 15.3 8.7 15.3ZM10.051 19.962C9.95269 20.0597 9.8856 20.1844 9.85826 20.3203C9.83091 20.4562 9.84453 20.5972 9.89739 20.7254C9.95025 20.8535 10.04 20.9631 10.1552 21.0402C10.2704 21.1173 10.4059 21.1584 10.5445 21.1584C10.6831 21.1584 10.8186 21.1173 10.9338 21.0402C11.049 20.9631 11.1388 20.8535 11.1916 20.7254C11.2445 20.5972 11.2581 20.4562 11.2307 20.3203C11.2034 20.1844 11.1363 20.0597 11.038 19.962C10.9068 19.8316 10.7294 19.7584 10.5445 19.7584C10.3596 19.7584 10.1822 19.8316 10.051 19.962ZM11.038 12.038C11.1363 11.9403 11.2034 11.8155 11.2307 11.6796C11.2581 11.5437 11.2445 11.4028 11.1916 11.2746C11.1388 11.1465 11.049 11.0369 10.9338 10.9598C10.8186 10.8827 10.6831 10.8416 10.5445 10.8416C10.4059 10.8416 10.2704 10.8827 10.1552 10.9598C10.04 11.0369 9.95025 11.1465 9.89739 11.2746C9.84453 11.4028 9.83091 11.5437 9.85826 11.6796C9.8856 11.8155 9.95269 11.9403 10.051 12.038C10.1822 12.1684 10.3596 12.2416 10.5445 12.2416C10.7294 12.2416 10.9068 12.1684 11.038 12.038ZM15 10.4C15.1384 10.4 15.2738 10.3589 15.3889 10.282C15.504 10.2051 15.5937 10.0958 15.6467 9.96788C15.6997 9.83997 15.7136 9.69922 15.6866 9.56344C15.6595 9.42765 15.5929 9.30292 15.495 9.20503C15.3971 9.10713 15.2724 9.04046 15.1366 9.01345C15.0008 8.98644 14.86 9.0003 14.7321 9.05328C14.6042 9.10627 14.4949 9.19599 14.418 9.3111C14.3411 9.42622 14.3 9.56155 14.3 9.7C14.3 9.88565 14.3738 10.0637 14.505 10.195C14.6363 10.3263 14.8143 10.4 15 10.4ZM18.962 19.962C18.8637 20.0597 18.7966 20.1844 18.7693 20.3203C18.7419 20.4562 18.7555 20.5972 18.8084 20.7254C18.8612 20.8535 18.951 20.9631 19.0662 21.0402C19.1814 21.1173 19.3169 21.1584 19.4555 21.1584C19.5941 21.1584 19.7296 21.1173 19.8448 21.0402C19.96 20.9631 20.0498 20.8535 20.1026 20.7254C20.1555 20.5972 20.1691 20.4562 20.1417 20.3203C20.1144 20.1844 20.0473 20.0597 19.949 19.962C19.8178 19.8316 19.6404 19.7584 19.4555 19.7584C19.2706 19.7584 19.0932 19.8316 18.962 19.962ZM21.3 15.3C21.1616 15.3 21.0262 15.3411 20.9111 15.418C20.796 15.4949 20.7063 15.6042 20.6533 15.7321C20.6003 15.86 20.5864 16.0008 20.6134 16.1366C20.6405 16.2724 20.7071 16.3971 20.805 16.495C20.9029 16.5929 21.0276 16.6595 21.1634 16.6866C21.2992 16.7136 21.44 16.6997 21.5679 16.6467C21.6958 16.5937 21.8051 16.504 21.882 16.3889C21.9589 16.2738 22 16.1384 22 16C22 15.8143 21.9262 15.6363 21.795 15.505C21.6637 15.3738 21.4857 15.3 21.3 15.3ZM18.962 11.051C18.8637 11.1487 18.7966 11.2735 18.7693 11.4094C18.7419 11.5453 18.7555 11.6862 18.8084 11.8144C18.8612 11.9425 18.951 12.0521 19.0662 12.1292C19.1814 12.2063 19.3169 12.2474 19.4555 12.2474C19.5941 12.2474 19.7296 12.2063 19.8448 12.1292C19.96 12.0521 20.0498 11.9425 20.1026 11.8144C20.1555 11.6862 20.1691 11.5453 20.1417 11.4094C20.1144 11.2735 20.0473 11.1487 19.949 11.051C19.8178 10.9206 19.6404 10.8474 19.4555 10.8474C19.2706 10.8474 19.0932 10.9206 18.962 11.051ZM15 21.6C14.8616 21.6 14.7262 21.6411 14.6111 21.718C14.496 21.7949 14.4063 21.9042 14.3533 22.0321C14.3003 22.16 14.2864 22.3008 14.3135 22.4366C14.3405 22.5723 14.4071 22.6971 14.505 22.795C14.6029 22.8929 14.7277 22.9595 14.8634 22.9865C14.9992 23.0136 15.14 22.9997 15.2679 22.9467C15.3958 22.8937 15.5051 22.804 15.582 22.6889C15.6589 22.5738 15.7 22.4384 15.7 22.3C15.7 22.1143 15.6263 21.9363 15.495 21.805C15.3637 21.6737 15.1857 21.6 15 21.6ZM15 11.8C14.1693 11.8 13.3573 12.0463 12.6666 12.5078C11.9759 12.9693 11.4376 13.6253 11.1197 14.3927C10.8018 15.1602 10.7186 16.0047 10.8807 16.8194C11.0428 17.6341 11.4428 18.3825 12.0302 18.9698C12.6175 19.5572 13.3659 19.9572 14.1806 20.1193C14.9953 20.2814 15.8398 20.1982 16.6073 19.8803C17.3747 19.5624 18.0307 19.0241 18.4922 18.3334C18.9537 17.6427 19.2 16.8307 19.2 16C19.2 14.8861 18.7575 13.8178 17.9698 13.0302C17.1822 12.2425 16.1139 11.8 15 11.8ZM15 18.8C14.4462 18.8 13.9049 18.6358 13.4444 18.3281C12.9839 18.0204 12.6251 17.5831 12.4131 17.0715C12.2012 16.5599 12.1458 15.9969 12.2538 15.4537C12.3618 14.9106 12.6285 14.4117 13.0201 14.0201C13.4117 13.6285 13.9106 13.3618 14.4537 13.2538C14.9969 13.1458 15.5599 13.2012 16.0715 13.4131C16.5831 13.6251 17.0204 13.9839 17.3281 14.4444C17.6358 14.9049 17.8 15.4462 17.8 16C17.8 16.7426 17.505 17.4548 16.9799 17.9799C16.4548 18.505 15.7426 18.8 15 18.8Z" fill="#646468"/>
<defs>
<filter id="filter0_d_155_1054" x="0" y="0.5" width="31" height="31" filterUnits="userSpaceOnUse" color-interpolation-filters="sRGB">
<feFlood flood-opacity="0" result="BackgroundImageFix"/>
<feColorMatrix in="SourceAlpha" type="matrix" values="0 0 0 0 0 0 0 0 0 0 0 0 0 0 0 0 0 0 127 0" result="hardAlpha"/>
<feOffset/>
<feGaussianBlur stdDeviation="2"/>
<feComposite in2="hardAlpha" operator="out"/>
<feColorMatrix type="matrix" values="0 0 0 0 0.379167 0 0 0 0 0.379167 0 0 0 0 0.379167 0 0 0 0.08 0"/>
<feBlend mode="normal" in2="BackgroundImageFix" result="effect1_dropShadow_155_1054"/>
<feBlend mode="normal" in="SourceGraphic" in2="effect1_dropShadow_155_1054" result="shape"/>
</filter>
</defs>
</svg>
