<svg width="31" height="31" viewBox="0 0 31 31" fill="none" xmlns="http://www.w3.org/2000/svg">
<path d="M30.1724 10.2414C30.1724 4.71851 25.6953 0.241364 20.1724 0.241364H10C4.47716 0.241364 1.71661e-05 4.71852 1.71661e-05 10.2414V20.4138C1.71661e-05 25.9366 4.47717 30.4138 10 30.4138H25.1724C27.9339 30.4138 30.1724 28.1752 30.1724 25.4138V10.2414Z" fill="#525298"/>
<path d="M8.65205 14.0716C8.86822 14.0716 9.07553 14.1583 9.22838 14.3128C9.38123 14.4673 9.4671 14.6767 9.4671 14.8952V20.6604C9.4671 20.8788 9.55297 21.0883 9.70582 21.2428C9.85867 21.3972 10.066 21.484 10.2821 21.484H21.6928C21.909 21.484 22.1163 21.3972 22.2691 21.2428C22.422 21.0883 22.5078 20.8788 22.5078 20.6604V14.0716C22.5078 13.8531 22.422 13.6437 22.2691 13.4892C22.1163 13.3347 21.909 13.248 21.6928 13.248H20.0627C19.885 13.2573 19.7091 13.2077 19.5619 13.1065C19.4147 13.0054 19.3044 12.8584 19.2477 12.6879L18.8075 11.3372C18.7529 11.1736 18.6487 11.0315 18.5097 10.931C18.3708 10.8305 18.2041 10.7767 18.0332 10.7772H13.5423C13.3262 10.7772 13.1189 10.6904 12.966 10.5359C12.8132 10.3815 12.7273 10.172 12.7273 9.95355C12.7273 9.73512 12.8132 9.52563 12.966 9.37118C13.1189 9.21672 13.3262 9.12995 13.5423 9.12995H18.074C18.5862 9.13092 19.0852 9.29441 19.5005 9.59735C19.9158 9.90029 20.2265 10.3274 20.3887 10.8183L20.6495 11.6419H21.6928C22.3413 11.6419 22.9632 11.9023 23.4218 12.3656C23.8803 12.829 24.1379 13.4575 24.1379 14.1128V20.7016C24.1379 21.3569 23.8803 21.9853 23.4218 22.4487C22.9632 22.9121 22.3413 23.1724 21.6928 23.1724H10.2821C9.63365 23.1724 9.01172 22.9121 8.55317 22.4487C8.09462 21.9853 7.83701 21.3569 7.83701 20.7016V14.9364C7.83148 14.8248 7.84847 14.7132 7.88695 14.6085C7.92542 14.5038 7.98458 14.4081 8.06083 14.3272C8.13707 14.2463 8.2288 14.1819 8.33044 14.138C8.43208 14.094 8.5415 14.0714 8.65205 14.0716ZM15.9875 13.248C16.6323 13.248 17.2626 13.4412 17.7987 13.8032C18.3349 14.1652 18.7527 14.6797 18.9995 15.2817C19.2462 15.8836 19.3108 16.546 19.185 17.1851C19.0592 17.8241 18.7487 18.4112 18.2928 18.8719C17.8368 19.3326 17.2559 19.6464 16.6235 19.7735C15.9911 19.9006 15.3356 19.8354 14.7399 19.586C14.1441 19.3367 13.635 18.9144 13.2767 18.3727C12.9185 17.8309 12.7273 17.194 12.7273 16.5424C12.7273 15.6687 13.0708 14.8307 13.6822 14.2129C14.2936 13.5951 15.1228 13.248 15.9875 13.248ZM15.9875 18.1896C16.3099 18.1896 16.625 18.093 16.8931 17.912C17.1612 17.731 17.3701 17.4737 17.4935 17.1727C17.6169 16.8718 17.6491 16.5406 17.5862 16.221C17.5233 15.9015 17.3681 15.608 17.1401 15.3776C16.9121 15.1473 16.6217 14.9904 16.3055 14.9268C15.9893 14.8633 15.6615 14.8959 15.3637 15.0206C15.0658 15.1452 14.8112 15.3564 14.6321 15.6272C14.453 15.8981 14.3574 16.2166 14.3574 16.5424C14.3574 16.9793 14.5291 17.3982 14.8348 17.7071C15.1405 18.016 15.5551 18.1896 15.9875 18.1896ZM7.02196 9.12995H7.83701V8.30635C7.83701 8.08791 7.92287 7.87843 8.07573 7.72397C8.22858 7.56951 8.43589 7.48274 8.65205 7.48274C8.86822 7.48274 9.07553 7.56951 9.22838 7.72397C9.38123 7.87843 9.4671 8.08791 9.4671 8.30635V9.12995H10.2821C10.4983 9.12995 10.7056 9.21672 10.8585 9.37118C11.0113 9.52563 11.0972 9.73512 11.0972 9.95355C11.0972 10.172 11.0113 10.3815 10.8585 10.5359C10.7056 10.6904 10.4983 10.7772 10.2821 10.7772H9.4671V11.6008C9.4671 11.8192 9.38123 12.0287 9.22838 12.1831C9.07553 12.3376 8.86822 12.4244 8.65205 12.4244C8.43589 12.4244 8.22858 12.3376 8.07573 12.1831C7.92287 12.0287 7.83701 11.8192 7.83701 11.6008V10.7772H7.02196C6.80579 10.7772 6.59848 10.6904 6.44563 10.5359C6.29278 10.3815 6.20691 10.172 6.20691 9.95355C6.20691 9.73512 6.29278 9.52563 6.44563 9.37118C6.59848 9.21672 6.80579 9.12995 7.02196 9.12995Z" fill="white"/>
</svg>
