<svg width="64" height="32" viewBox="0 0 64 32" fill="none" xmlns="http://www.w3.org/2000/svg">
<path d="M0 16C0 8.8203 5.8203 3 13 3H49C56.1797 3 62 8.8203 62 16C62 23.1797 56.1797 29 49 29H13C5.8203 29 0 23.1797 0 16Z" fill="#525298"/>
<g filter="url(#filter0_d_167_149)">
<circle cx="48.5" cy="16" r="11.5" fill="#FCFCFD"/>
</g>
<path d="M14.0957 17.8887H11.8984V16.623H14.0957C14.4551 16.623 14.7461 16.5645 14.9688 16.4473C15.1953 16.3262 15.3613 16.1621 15.4668 15.9551C15.5723 15.7441 15.625 15.5039 15.625 15.2344C15.625 14.9727 15.5723 14.7285 15.4668 14.502C15.3613 14.2754 15.1953 14.0918 14.9688 13.9512C14.7461 13.8105 14.4551 13.7402 14.0957 13.7402H12.4258V21H10.8145V12.4688H14.0957C14.7598 12.4688 15.3262 12.5879 15.7949 12.8262C16.2676 13.0605 16.627 13.3867 16.873 13.8047C17.123 14.2188 17.248 14.6914 17.248 15.2227C17.248 15.7734 17.123 16.248 16.873 16.6465C16.627 17.0449 16.2676 17.3516 15.7949 17.5664C15.3262 17.7812 14.7598 17.8887 14.0957 17.8887ZM20.1768 12.4688H21.5713L23.9034 18.8906L26.2295 12.4688H27.6299L24.46 21H23.3409L20.1768 12.4688ZM19.4737 12.4688H20.8389L21.085 18.3691V21H19.4737V12.4688ZM26.962 12.4688H28.333V21H26.7217V18.3691L26.962 12.4688Z" fill="white"/>
<path d="M54.1237 16.8998C54.0347 16.8262 53.9268 16.7791 53.8122 16.7638C53.6977 16.7486 53.5812 16.7658 53.476 16.8135C52.8236 17.112 52.1143 17.2656 51.3969 17.2638C50.0698 17.2622 48.7971 16.736 47.8564 15.7999C46.9156 14.8638 46.3831 13.5937 46.375 12.2666C46.3778 11.8507 46.4296 11.4366 46.5292 11.0328C46.5504 10.9251 46.5424 10.8138 46.5063 10.7103C46.4701 10.6067 46.4069 10.5147 46.3233 10.4437C46.2397 10.3726 46.1387 10.3252 46.0307 10.3062C45.9226 10.2872 45.8115 10.2974 45.7087 10.3356C44.7415 10.7705 43.9008 11.4441 43.2655 12.2931C42.6301 13.1422 42.2211 14.1388 42.0767 15.1894C41.9323 16.2399 42.0574 17.31 42.4401 18.2989C42.8228 19.2879 43.4507 20.1633 44.2646 20.843C45.0786 21.5227 46.052 21.9843 47.0934 22.1844C48.1348 22.3846 49.2099 22.3167 50.2179 21.9873C51.2258 21.6578 52.1335 21.0775 52.8556 20.3009C53.5777 19.5243 54.0905 18.5769 54.3458 17.5476C54.3769 17.4298 54.3725 17.3054 54.3329 17.1901C54.2934 17.0748 54.2206 16.9738 54.1237 16.8998ZM48.2628 21.0272C47.2275 21.0199 46.2197 20.6927 45.3774 20.0905C44.5352 19.4883 43.8996 18.6404 43.5579 17.6631C43.2161 16.6857 43.1848 15.6266 43.4682 14.6307C43.7516 13.6349 44.3359 12.751 45.1411 12.1001V12.2666C45.1428 13.9253 45.8024 15.5155 46.9752 16.6883C48.148 17.8611 49.7382 18.5208 51.3969 18.5224C51.8324 18.524 52.2667 18.4785 52.6924 18.3867C52.2667 19.1921 51.6291 19.866 50.8485 20.3357C50.0679 20.8053 49.1739 21.053 48.2628 21.0518V21.0272Z" fill="#525298"/>
<defs>
<filter id="filter0_d_167_149" x="33" y="0.5" width="31" height="31" filterUnits="userSpaceOnUse" color-interpolation-filters="sRGB">
<feFlood flood-opacity="0" result="BackgroundImageFix"/>
<feColorMatrix in="SourceAlpha" type="matrix" values="0 0 0 0 0 0 0 0 0 0 0 0 0 0 0 0 0 0 127 0" result="hardAlpha"/>
<feOffset/>
<feGaussianBlur stdDeviation="2"/>
<feComposite in2="hardAlpha" operator="out"/>
<feColorMatrix type="matrix" values="0 0 0 0 0.379167 0 0 0 0 0.379167 0 0 0 0 0.379167 0 0 0 0.08 0"/>
<feBlend mode="normal" in2="BackgroundImageFix" result="effect1_dropShadow_167_149"/>
<feBlend mode="normal" in="SourceGraphic" in2="effect1_dropShadow_167_149" result="shape"/>
</filter>
</defs>
</svg>
