<svg width="8" height="13" viewBox="0 0 8 13" fill="none" xmlns="http://www.w3.org/2000/svg">
<path d="M2.46386 4.53291L4.42509 2.56311L6.38632 4.53291C6.46594 4.61318 6.56066 4.67689 6.66502 4.72037C6.76939 4.76385 6.88133 4.78624 6.99439 4.78624C7.10745 4.78624 7.21939 4.76385 7.32375 4.72037C7.42812 4.67689 7.52284 4.61318 7.60246 4.53291C7.68273 4.45329 7.74644 4.35857 7.78992 4.2542C7.8334 4.14984 7.85579 4.0379 7.85579 3.92484C7.85579 3.81178 7.8334 3.69984 7.78992 3.59548C7.74644 3.49111 7.68273 3.39639 7.60246 3.31677L5.03316 0.747472C4.95354 0.6672 4.85882 0.603486 4.75445 0.560006C4.65009 0.516526 4.53815 0.494141 4.42509 0.494141C4.31203 0.494141 4.20009 0.516526 4.09572 0.560006C3.99136 0.603486 3.89664 0.6672 3.81702 0.747472L1.24772 3.31677C1.08645 3.47804 0.99585 3.69677 0.99585 3.92484C0.99585 4.15291 1.08645 4.37164 1.24772 4.53291C1.40899 4.69418 1.62772 4.78478 1.85579 4.78478C2.08386 4.78478 2.30259 4.69418 2.46386 4.53291ZM6.38632 8.45537L4.42509 10.4252L2.46386 8.45537C2.384 8.37552 2.2892 8.31218 2.18487 8.26896C2.08054 8.22575 1.96872 8.2035 1.85579 8.2035C1.74286 8.2035 1.63104 8.22575 1.5267 8.26896C1.42237 8.31218 1.32757 8.37552 1.24772 8.45537C1.16787 8.53523 1.10452 8.63002 1.06131 8.73436C1.01809 8.83869 0.99585 8.95051 0.99585 9.06344C0.99585 9.17637 1.01809 9.28819 1.06131 9.39253C1.10452 9.49686 1.16787 9.59166 1.24772 9.67151L3.81702 12.2408C3.89664 12.3211 3.99136 12.3848 4.09572 12.4283C4.20009 12.4718 4.31203 12.4941 4.42509 12.4941C4.53815 12.4941 4.65009 12.4718 4.75445 12.4283C4.85882 12.3848 4.95354 12.3211 5.03316 12.2408L7.60246 9.67151C7.76373 9.51024 7.85432 9.29151 7.85432 9.06344C7.85432 8.83537 7.76373 8.61664 7.60246 8.45537C7.44119 8.2941 7.22246 8.2035 6.99439 8.2035C6.76632 8.2035 6.54759 8.2941 6.38632 8.45537Z" fill="#B3B3B3"/>
</svg>
